# xmcd
#
# Track frame offsets: 
#        150
#        15055
#        28985
#        41869
#        57279
#        71312
#        85204
#        98928
#        113192
#        127485
#        139405
#        153491
#        166221
#        181674
#        195607
#        208977
#        221295
#        234638
#        249418
#        263001
#        276478
#        288816
#        304067
#
# Disc length: 4237 seconds
#
# Revision: 1
# Processed by: cddbd v1.5.2PL0 Copyright (c) Steve Scherf et al.
# Submitted via: ExactAudioCopy v1.0b3
#
DISCID=52108b17
DTITLE=Martha Copeland - Complete Recorded Works In Chronological Orde
DTITLE=r Vol. 1 (1923-1927)
DYEAR=1995
DGENRE=Blues
TTITLE0=The Down So Long Blues
TTITLE1=The Pawn Shop Blues
TTITLE2=Daddy, You've Done Put That Thing On Me
TTITLE3=The Penetrating Blues
TTITLE4=Black Snake Blues
TTITLE5=Papa If You Can't Do Better [take 2]
TTITLE6=Papa If You Can't Do Better [take 3]
TTITLE7=On Decoration Day (They'll Know Where to Bring Your Flowers To
TTITLE7=)
TTITLE8=Fortune Teller Blues
TTITLE9=When The Wind Make Connection With Your Dry Goods (with Sidney
TTITLE9=Easton)
TTITLE10=Hard Headed Mama (with Sidney Easton)
TTITLE11=I Don't Care Who Ain't Got Nobody
TTITLE12=Stole My Man Blues
TTITLE13=The Black Snake Moan
TTITLE14=Mine's Just As Good As Yours
TTITLE15=Soul And Body (He Belongs To Me)
TTITLE16=Sorrow Valley Blues
TTITLE17=Dyin' Crap-Shooter's Blues
TTITLE18=Mr. Brakes-Man (Let Me Ride Your Train)
TTITLE19=Police Blues
TTITLE20=Skeleton Key Blues
TTITLE21=Hobo Bill
TTITLE22=Nobody Rocks Me Like My Baby Do
EXTD=
EXTT0=
EXTT1=
EXTT2=
EXTT3=
EXTT4=
EXTT5=
EXTT6=
EXTT7=
EXTT8=
EXTT9=
EXTT10=
EXTT11=
EXTT12=
EXTT13=
EXTT14=
EXTT15=
EXTT16=
EXTT17=
EXTT18=
EXTT19=
EXTT20=
EXTT21=
EXTT22=
PLAYORDER=
